<mxfile host="app.diagrams.net" modified="2023-10-31T02:36:38.232Z" agent="Mozilla/5.0 (Macintosh; Intel Mac OS X 10_15_7) AppleWebKit/537.36 (KHTML, like Gecko) Chrome/118.0.0.0 Safari/537.36" etag="QMicgbXcj_IOt7Jb4Mc_" version="22.0.8" type="device">
  <diagram id="z-FsIPkUhFDbVIC-KI6s" name="Page-1">
    <mxGraphModel dx="605" dy="667" grid="0" gridSize="10" guides="1" tooltips="1" connect="1" arrows="1" fold="1" page="1" pageScale="1" pageWidth="850" pageHeight="1100" math="0" shadow="0">
      <root>
        <mxCell id="0" />
        <mxCell id="1" parent="0" />
        <mxCell id="4Z6NapCHLpMP4u1BnLmX-9" style="edgeStyle=orthogonalEdgeStyle;rounded=0;orthogonalLoop=1;jettySize=auto;html=1;exitX=1;exitY=0.5;exitDx=0;exitDy=0;exitPerimeter=0;entryX=0;entryY=0.5;entryDx=0;entryDy=0;fontFamily=Roboto;fontSource=https%3A%2F%2Ffonts.googleapis.com%2Fcss%3Ffamily%3DRoboto;fontSize=14;fontStyle=1" parent="1" source="4Z6NapCHLpMP4u1BnLmX-2" target="4Z6NapCHLpMP4u1BnLmX-7" edge="1">
          <mxGeometry relative="1" as="geometry" />
        </mxCell>
        <mxCell id="4Z6NapCHLpMP4u1BnLmX-2" value="" style="points=[[0.015,0.015,0],[0.985,0.015,0],[0.985,0.985,0],[0.015,0.985,0],[0.25,0,0],[0.5,0,0],[0.75,0,0],[1,0.25,0],[1,0.5,0],[1,0.75,0],[0.75,1,0],[0.5,1,0],[0.25,1,0],[0,0.75,0],[0,0.5,0],[0,0.25,0]];verticalLabelPosition=bottom;html=1;verticalAlign=top;aspect=fixed;align=center;pointerEvents=1;shape=mxgraph.cisco19.dns_server;fillColor=#005073;strokeColor=none;fontFamily=Roboto;fontSource=https%3A%2F%2Ffonts.googleapis.com%2Fcss%3Ffamily%3DRoboto;fontSize=14;fontStyle=1" parent="1" vertex="1">
          <mxGeometry x="160.78" y="281" width="67.1" height="122" as="geometry" />
        </mxCell>
        <mxCell id="4Z6NapCHLpMP4u1BnLmX-14" style="edgeStyle=orthogonalEdgeStyle;rounded=0;orthogonalLoop=1;jettySize=auto;html=1;exitX=0.5;exitY=0;exitDx=0;exitDy=0;entryX=0.5;entryY=1;entryDx=0;entryDy=0;fontFamily=Roboto;fontSource=https%3A%2F%2Ffonts.googleapis.com%2Fcss%3Ffamily%3DRoboto;fontSize=14;fontStyle=1" parent="1" source="4Z6NapCHLpMP4u1BnLmX-5" target="4Z6NapCHLpMP4u1BnLmX-12" edge="1">
          <mxGeometry relative="1" as="geometry" />
        </mxCell>
        <mxCell id="4Z6NapCHLpMP4u1BnLmX-20" style="edgeStyle=orthogonalEdgeStyle;rounded=0;orthogonalLoop=1;jettySize=auto;html=1;exitX=1;exitY=0.5;exitDx=0;exitDy=0;entryX=0;entryY=0.5;entryDx=0;entryDy=0;entryPerimeter=0;strokeColor=#000000;dashed=1;fontFamily=Roboto;fontSource=https%3A%2F%2Ffonts.googleapis.com%2Fcss%3Ffamily%3DRoboto;fontSize=14;fontStyle=1" parent="1" source="4Z6NapCHLpMP4u1BnLmX-5" target="4Z6NapCHLpMP4u1BnLmX-17" edge="1">
          <mxGeometry relative="1" as="geometry" />
        </mxCell>
        <mxCell id="4Z6NapCHLpMP4u1BnLmX-5" value="" style="shape=image;html=1;verticalAlign=top;verticalLabelPosition=bottom;labelBackgroundColor=#ffffff;imageAspect=0;aspect=fixed;image=https://cdn1.iconfinder.com/data/icons/anycolor-common-type-files-pack/512/json_anycolor-128.png;fontFamily=Roboto;fontSource=https%3A%2F%2Ffonts.googleapis.com%2Fcss%3Ffamily%3DRoboto;fontSize=14;fontStyle=1" parent="1" vertex="1">
          <mxGeometry x="150.83" y="554" width="112" height="112" as="geometry" />
        </mxCell>
        <mxCell id="4Z6NapCHLpMP4u1BnLmX-7" value="" style="shape=image;html=1;verticalAlign=top;verticalLabelPosition=bottom;labelBackgroundColor=#ffffff;imageAspect=0;aspect=fixed;image=https://cdn1.iconfinder.com/data/icons/hawcons/32/699061-icon-70-document-code-128.png;fontFamily=Roboto;fontSource=https%3A%2F%2Ffonts.googleapis.com%2Fcss%3Ffamily%3DRoboto;fontSize=14;fontStyle=1" parent="1" vertex="1">
          <mxGeometry x="332" y="278" width="128" height="128" as="geometry" />
        </mxCell>
        <mxCell id="4Z6NapCHLpMP4u1BnLmX-18" style="edgeStyle=orthogonalEdgeStyle;rounded=0;orthogonalLoop=1;jettySize=auto;html=1;exitX=0.5;exitY=1;exitDx=0;exitDy=0;entryX=0.5;entryY=0;entryDx=0;entryDy=0;entryPerimeter=0;fontFamily=Roboto;fontSource=https%3A%2F%2Ffonts.googleapis.com%2Fcss%3Ffamily%3DRoboto;fontSize=14;fontStyle=1" parent="1" source="4Z6NapCHLpMP4u1BnLmX-8" target="4Z6NapCHLpMP4u1BnLmX-17" edge="1">
          <mxGeometry relative="1" as="geometry" />
        </mxCell>
        <mxCell id="4Z6NapCHLpMP4u1BnLmX-8" value="" style="shape=image;html=1;verticalAlign=top;verticalLabelPosition=bottom;labelBackgroundColor=#ffffff;imageAspect=0;aspect=fixed;image=https://cdn2.iconfinder.com/data/icons/picol-vector/32/website-128.png;fontFamily=Roboto;fontSource=https%3A%2F%2Ffonts.googleapis.com%2Fcss%3Ffamily%3DRoboto;fontSize=14;fontStyle=1" parent="1" vertex="1">
          <mxGeometry x="587" y="286" width="128" height="128" as="geometry" />
        </mxCell>
        <mxCell id="4Z6NapCHLpMP4u1BnLmX-11" value="DNS Records" style="text;html=1;strokeColor=none;fillColor=none;align=center;verticalAlign=middle;whiteSpace=wrap;rounded=0;fontStyle=1;fontFamily=Roboto;fontSource=https%3A%2F%2Ffonts.googleapis.com%2Fcss%3Ffamily%3DRoboto;fontSize=14;" parent="1" vertex="1">
          <mxGeometry x="150.83" y="407" width="87" height="32" as="geometry" />
        </mxCell>
        <mxCell id="4Z6NapCHLpMP4u1BnLmX-12" value="Document Store Smart Contract" style="text;html=1;strokeColor=none;fillColor=none;align=center;verticalAlign=middle;whiteSpace=wrap;rounded=0;fontStyle=1;fontFamily=Roboto;fontSource=https%3A%2F%2Ffonts.googleapis.com%2Fcss%3Ffamily%3DRoboto;fontSize=14;" parent="1" vertex="1">
          <mxGeometry x="344" y="399" width="104" height="43" as="geometry" />
        </mxCell>
        <mxCell id="4Z6NapCHLpMP4u1BnLmX-15" value="Verifiable Document File" style="text;html=1;align=center;verticalAlign=middle;resizable=0;points=[];autosize=1;fontStyle=1;fontFamily=Roboto;fontSource=https%3A%2F%2Ffonts.googleapis.com%2Fcss%3Ffamily%3DRoboto;fontSize=14;" parent="1" vertex="1">
          <mxGeometry x="122.33" y="666" width="169" height="29" as="geometry" />
        </mxCell>
        <mxCell id="4Z6NapCHLpMP4u1BnLmX-16" value="Decentralized Renderer" style="text;html=1;align=center;verticalAlign=middle;resizable=0;points=[];autosize=1;fontStyle=1;fontFamily=Roboto;fontSource=https%3A%2F%2Ffonts.googleapis.com%2Fcss%3Ffamily%3DRoboto;fontSize=14;" parent="1" vertex="1">
          <mxGeometry x="570.5" y="276" width="162" height="29" as="geometry" />
        </mxCell>
        <mxCell id="4Z6NapCHLpMP4u1BnLmX-17" value="" style="verticalLabelPosition=bottom;html=1;verticalAlign=top;align=center;strokeColor=none;fillColor=#00BEF2;shape=mxgraph.azure.computer;pointerEvents=1;fontFamily=Roboto;fontSource=https%3A%2F%2Ffonts.googleapis.com%2Fcss%3Ffamily%3DRoboto;fontSize=14;fontStyle=1" parent="1" vertex="1">
          <mxGeometry x="562" y="507" width="178" height="148" as="geometry" />
        </mxCell>
        <mxCell id="4Z6NapCHLpMP4u1BnLmX-19" value="Document Viewer" style="text;html=1;align=center;verticalAlign=middle;resizable=0;points=[];autosize=1;fontStyle=1;fontFamily=Roboto;fontSource=https%3A%2F%2Ffonts.googleapis.com%2Fcss%3Ffamily%3DRoboto;fontSize=14;" parent="1" vertex="1">
          <mxGeometry x="585" y="655" width="128" height="29" as="geometry" />
        </mxCell>
        <mxCell id="4Z6NapCHLpMP4u1BnLmX-21" value="Issuance Proof" style="text;html=1;align=center;verticalAlign=middle;resizable=0;points=[];autosize=1;fontFamily=Roboto;fontSource=https%3A%2F%2Ffonts.googleapis.com%2Fcss%3Ffamily%3DRoboto;fontSize=14;fontStyle=1" parent="1" vertex="1">
          <mxGeometry x="238" y="474" width="112" height="29" as="geometry" />
        </mxCell>
        <mxCell id="4Z6NapCHLpMP4u1BnLmX-22" value="Identity Proof" style="text;html=1;align=center;verticalAlign=middle;resizable=0;points=[];autosize=1;fontFamily=Roboto;fontSource=https%3A%2F%2Ffonts.googleapis.com%2Fcss%3Ffamily%3DRoboto;fontSize=14;fontStyle=1" parent="1" vertex="1">
          <mxGeometry x="233" y="318" width="102" height="29" as="geometry" />
        </mxCell>
        <mxCell id="4Z6NapCHLpMP4u1BnLmX-23" value="Embedded" style="text;html=1;align=center;verticalAlign=middle;resizable=0;points=[];autosize=1;fontFamily=Roboto;fontSource=https%3A%2F%2Ffonts.googleapis.com%2Fcss%3Ffamily%3DRoboto;fontSize=14;fontStyle=1" parent="1" vertex="1">
          <mxGeometry x="647.5" y="445" width="85" height="29" as="geometry" />
        </mxCell>
      </root>
    </mxGraphModel>
  </diagram>
</mxfile>
